<mxfile host="app.diagrams.net" modified="2024-08-05T08:58:57.146Z" agent="Mozilla/5.0 (Macintosh; Intel Mac OS X 10_15_7) AppleWebKit/537.36 (KHTML, like Gecko) Chrome/127.0.0.0 Safari/537.36" etag="jBP7zfPLdRzO0H-4gNwR" version="24.7.1" type="github">
  <diagram name="第 1 页" id="vI6nraIVUL4OTA3RizuB">
    <mxGraphModel dx="1434" dy="761" grid="1" gridSize="10" guides="1" tooltips="1" connect="1" arrows="1" fold="1" page="1" pageScale="1" pageWidth="827" pageHeight="1169" math="0" shadow="0">
      <root>
        <mxCell id="0" />
        <mxCell id="1" parent="0" />
        <mxCell id="qBTm0EHOPtX7WDGnIkgW-3" value="" style="edgeStyle=orthogonalEdgeStyle;rounded=0;orthogonalLoop=1;jettySize=auto;html=1;" edge="1" parent="1" source="qBTm0EHOPtX7WDGnIkgW-1" target="qBTm0EHOPtX7WDGnIkgW-2">
          <mxGeometry relative="1" as="geometry" />
        </mxCell>
        <mxCell id="qBTm0EHOPtX7WDGnIkgW-18" value="" style="edgeStyle=orthogonalEdgeStyle;rounded=0;orthogonalLoop=1;jettySize=auto;html=1;" edge="1" parent="1" source="qBTm0EHOPtX7WDGnIkgW-1" target="qBTm0EHOPtX7WDGnIkgW-17">
          <mxGeometry relative="1" as="geometry" />
        </mxCell>
        <mxCell id="qBTm0EHOPtX7WDGnIkgW-1" value="手術中護理" style="rounded=0;whiteSpace=wrap;html=1;" vertex="1" parent="1">
          <mxGeometry x="354" y="150" width="120" height="60" as="geometry" />
        </mxCell>
        <mxCell id="qBTm0EHOPtX7WDGnIkgW-6" style="edgeStyle=orthogonalEdgeStyle;rounded=0;orthogonalLoop=1;jettySize=auto;html=1;entryX=1;entryY=0.5;entryDx=0;entryDy=0;" edge="1" parent="1" source="qBTm0EHOPtX7WDGnIkgW-2" target="qBTm0EHOPtX7WDGnIkgW-4">
          <mxGeometry relative="1" as="geometry" />
        </mxCell>
        <mxCell id="qBTm0EHOPtX7WDGnIkgW-11" style="rounded=0;orthogonalLoop=1;jettySize=auto;html=1;exitX=0;exitY=1;exitDx=0;exitDy=0;entryX=1;entryY=0;entryDx=0;entryDy=0;" edge="1" parent="1" source="qBTm0EHOPtX7WDGnIkgW-2" target="qBTm0EHOPtX7WDGnIkgW-9">
          <mxGeometry relative="1" as="geometry" />
        </mxCell>
        <mxCell id="qBTm0EHOPtX7WDGnIkgW-12" style="edgeStyle=orthogonalEdgeStyle;rounded=0;orthogonalLoop=1;jettySize=auto;html=1;exitX=0.5;exitY=1;exitDx=0;exitDy=0;entryX=0.5;entryY=0;entryDx=0;entryDy=0;" edge="1" parent="1" source="qBTm0EHOPtX7WDGnIkgW-2" target="qBTm0EHOPtX7WDGnIkgW-7">
          <mxGeometry relative="1" as="geometry" />
        </mxCell>
        <mxCell id="qBTm0EHOPtX7WDGnIkgW-13" style="rounded=0;orthogonalLoop=1;jettySize=auto;html=1;exitX=1;exitY=1;exitDx=0;exitDy=0;entryX=0;entryY=0;entryDx=0;entryDy=0;" edge="1" parent="1" source="qBTm0EHOPtX7WDGnIkgW-2" target="qBTm0EHOPtX7WDGnIkgW-10">
          <mxGeometry relative="1" as="geometry" />
        </mxCell>
        <mxCell id="qBTm0EHOPtX7WDGnIkgW-14" style="edgeStyle=orthogonalEdgeStyle;rounded=0;orthogonalLoop=1;jettySize=auto;html=1;exitX=1;exitY=0.5;exitDx=0;exitDy=0;entryX=0;entryY=0.5;entryDx=0;entryDy=0;" edge="1" parent="1" source="qBTm0EHOPtX7WDGnIkgW-2" target="qBTm0EHOPtX7WDGnIkgW-8">
          <mxGeometry relative="1" as="geometry" />
        </mxCell>
        <mxCell id="qBTm0EHOPtX7WDGnIkgW-2" value="保護病人度過手術" style="whiteSpace=wrap;html=1;rounded=0;" vertex="1" parent="1">
          <mxGeometry x="354" y="290" width="120" height="60" as="geometry" />
        </mxCell>
        <mxCell id="qBTm0EHOPtX7WDGnIkgW-4" value="自動化監控" style="ellipse;whiteSpace=wrap;html=1;" vertex="1" parent="1">
          <mxGeometry x="70" y="280" width="120" height="80" as="geometry" />
        </mxCell>
        <mxCell id="qBTm0EHOPtX7WDGnIkgW-7" value="通訊協調" style="ellipse;whiteSpace=wrap;html=1;" vertex="1" parent="1">
          <mxGeometry x="354" y="450" width="120" height="80" as="geometry" />
        </mxCell>
        <mxCell id="qBTm0EHOPtX7WDGnIkgW-16" value="" style="edgeStyle=orthogonalEdgeStyle;rounded=0;orthogonalLoop=1;jettySize=auto;html=1;" edge="1" parent="1" source="qBTm0EHOPtX7WDGnIkgW-8" target="qBTm0EHOPtX7WDGnIkgW-15">
          <mxGeometry relative="1" as="geometry" />
        </mxCell>
        <mxCell id="qBTm0EHOPtX7WDGnIkgW-8" value="教育和培訓" style="ellipse;whiteSpace=wrap;html=1;" vertex="1" parent="1">
          <mxGeometry x="640" y="280" width="120" height="80" as="geometry" />
        </mxCell>
        <mxCell id="qBTm0EHOPtX7WDGnIkgW-9" value="數據記錄和管理" style="ellipse;whiteSpace=wrap;html=1;" vertex="1" parent="1">
          <mxGeometry x="190" y="380" width="120" height="80" as="geometry" />
        </mxCell>
        <mxCell id="qBTm0EHOPtX7WDGnIkgW-10" value="預警和提示" style="ellipse;whiteSpace=wrap;html=1;" vertex="1" parent="1">
          <mxGeometry x="520" y="380" width="120" height="80" as="geometry" />
        </mxCell>
        <mxCell id="qBTm0EHOPtX7WDGnIkgW-15" value="模擬場景&lt;div&gt;但應該不是必須&lt;/div&gt;" style="whiteSpace=wrap;html=1;" vertex="1" parent="1">
          <mxGeometry x="840" y="290" width="120" height="60" as="geometry" />
        </mxCell>
        <mxCell id="qBTm0EHOPtX7WDGnIkgW-17" value="預防&lt;div&gt;手術過程造成傷害&lt;br&gt;&lt;/div&gt;" style="whiteSpace=wrap;html=1;rounded=0;" vertex="1" parent="1">
          <mxGeometry x="590" y="150" width="120" height="60" as="geometry" />
        </mxCell>
      </root>
    </mxGraphModel>
  </diagram>
</mxfile>
